<?xml version="1.0" encoding="utf-8"?>
<!-- Generator: Adobe Illustrator 18.1.1, SVG Export Plug-In . SVG Version: 6.00 Build 0)  -->
<svg version="1.1" id="Layer_1" xmlns="http://www.w3.org/2000/svg" xmlns:xlink="http://www.w3.org/1999/xlink" x="0px" y="0px"
	 viewBox="0 0 144.433 55.596" enable-background="new 0 0 144.433 55.596" xml:space="preserve">
<path fill-rule="evenodd" clip-rule="evenodd" fill="#ffffff" d="M144.433,54.304l-12.878,0.035L116.577,29.92l-7.725,7.602
	l0.021,8.641l6.685-0.017l0.021,8.232c0,0-9.262,1.891-16.187-0.879c-6.924-2.769-6.981-5.602-6.981-5.602
	c-4.392,4.008-10.255,6.466-16.613,6.484c-12.471,0.03-19.169-5.984-19.19-14.381c-0.018-6.439,4.372-11.504,10.558-14.618
	c-3.19-3.635-4.526-6.37-5.04-8.847c-2.606,1.945-7.067,6.475-7.067,6.475c-0.118,0.104-0.237,0.202-0.355,0.303
	c0.204,1.434,0.312,2.908,0.316,4.415c0.04,15.732-11.34,27.823-27.644,27.867C11.155,55.635,0.038,43.518,0,27.868
	C-0.042,12.134,11.342,0.042,27.645,0C38.999-0.028,47.846,5.907,52.15,14.835c1.79-2.1,4.471-5.089,7.047-7.354
	c6.53-5.743,13.068-6.443,14.538-6.527c0.871-0.134,1.786-0.21,2.746-0.213c8.963-0.021,14.765,4.855,14.783,12.273
	c0.018,6.846-4.701,10.936-11.212,13.968l2.369,2.115c0,0,6.397,5.004,12.025,5.004c6.752,0,5.206-9.773,5.185-12.746
	c-0.021-2.971-0.062-12.339-0.062-12.339L93.456,9.03l-0.02-8.232l22.008-0.055l0.021,8.068l-6.686,0.017l0.047,18.178
	l17.968-18.222l-6.113,0.015l-0.021-8.072L144.3,0.671l0.019,8.229l-5.785,0.015l-14.962,14.792l13.75,22.384l7.093-0.019
	L144.433,54.304z M36.125,17.308c2.403,2.695,5.174,3.861,8.177,3.25c-1.811-5.223-5.586-9.145-10.523-10.932
	C33.187,12.283,33.995,14.915,36.125,17.308z M45.48,28.052C40.098,28.986,35.039,26.694,30.857,22
	C27.136,17.824,25.358,13.22,26,8.626c-9.648,0.756-16.49,8.518-16.462,19.216c0.028,11.167,7.627,19.218,18.062,19.193
	C37.859,47.009,45.372,39.144,45.48,28.052z M70.886,13.716c0.004,1.957,0.502,4.563,4.263,8.875
	c3.742-1.803,7.08-4.582,7.065-9.556c-0.006-2.853-2.05-5.373-5.719-5.363C72.991,7.678,70.879,10.945,70.886,13.716z M86.45,43.104
	l-9.317-8.536c-1.959-1.707-3.676-3.252-5.065-4.632c-3.499,1.964-6.262,5.231-6.252,9.308c0.008,3.668,3.605,7.651,9.966,7.636
	C79.857,46.872,83.358,45.558,86.45,43.104z M99.51,40.747l-2.039,2.144c0,0,0.085,0.687,0.679,1.148
	c0.816,0.634,1.36,0.819,1.36,0.819V40.747z"/>
</svg>
